<svg width="72" height="13" viewBox="0 0 72 13" fill="none" xmlns="http://www.w3.org/2000/svg">
<path d="M6.44976 1.79973L7.59976 4.29973C7.64976 4.44973 7.79976 4.54973 7.94976 4.59973L10.5498 4.99973C10.9998 4.99973 11.1498 5.49973 10.8498 5.79973L8.94976 7.74973C8.84976 7.84973 8.79976 8.04973 8.79976 8.19973L9.24976 10.8997C9.29976 11.2997 8.89976 11.6497 8.54976 11.4497L6.19976 10.1497C6.04976 10.0497 5.89976 10.0497 5.74976 10.1497L3.39976 11.4497C3.04976 11.6497 2.59976 11.3497 2.69976 10.8997L3.14976 8.19973C3.19976 8.04973 3.09976 7.84973 2.99976 7.74973L1.09976 5.79973C0.849761 5.49973 0.999761 4.99973 1.39976 4.94973L3.99976 4.54973C4.14976 4.54973 4.29976 4.39973 4.34976 4.24973L5.49976 1.74973C5.74976 1.39973 6.24976 1.39973 6.44976 1.79973Z" fill="#143324"/>
<path d="M21.4498 1.79973L22.5998 4.29973C22.6498 4.44973 22.7998 4.54973 22.9498 4.59973L25.5498 4.99973C25.9998 4.99973 26.1498 5.49973 25.8498 5.79973L23.9498 7.74973C23.8498 7.84973 23.7998 8.04973 23.7998 8.19973L24.2498 10.8997C24.2998 11.2997 23.8998 11.6497 23.5498 11.4497L21.1998 10.1497C21.0498 10.0497 20.8998 10.0497 20.7498 10.1497L18.3998 11.4497C18.0498 11.6497 17.5998 11.3497 17.6998 10.8997L18.1498 8.19973C18.1998 8.04973 18.0998 7.84973 17.9998 7.74973L16.0998 5.79973C15.8498 5.49973 15.9998 4.99973 16.3998 4.94973L18.9998 4.54973C19.1498 4.54973 19.2998 4.39973 19.3498 4.24973L20.4998 1.74973C20.7498 1.39973 21.2498 1.39973 21.4498 1.79973Z" fill="#143324"/>
<path d="M36.4498 1.79973L37.5998 4.29973C37.6498 4.44973 37.7998 4.54973 37.9498 4.59973L40.5498 4.99973C40.9998 4.99973 41.1498 5.49973 40.8498 5.79973L38.9498 7.74973C38.8498 7.84973 38.7998 8.04973 38.7998 8.19973L39.2498 10.8997C39.2998 11.2997 38.8998 11.6497 38.5498 11.4497L36.1998 10.1497C36.0498 10.0497 35.8998 10.0497 35.7498 10.1497L33.3998 11.4497C33.0498 11.6497 32.5998 11.3497 32.6998 10.8997L33.1498 8.19973C33.1998 8.04973 33.0998 7.84973 32.9998 7.74973L31.0998 5.79973C30.8498 5.49973 30.9998 4.99973 31.3998 4.94973L33.9998 4.54973C34.1498 4.54973 34.2998 4.39973 34.3498 4.24973L35.4998 1.74973C35.7498 1.39973 36.2498 1.39973 36.4498 1.79973Z" fill="#143324"/>
<path d="M51.4498 1.79973L52.5998 4.29973C52.6498 4.44973 52.7998 4.54973 52.9498 4.59973L55.5498 4.99973C55.9998 4.99973 56.1498 5.49973 55.8498 5.79973L53.9498 7.74973C53.8498 7.84973 53.7998 8.04973 53.7998 8.19973L54.2498 10.8997C54.2998 11.2997 53.8998 11.6497 53.5498 11.4497L51.1998 10.1497C51.0498 10.0497 50.8998 10.0497 50.7498 10.1497L48.3998 11.4497C48.0498 11.6497 47.5998 11.3497 47.6998 10.8997L48.1498 8.19973C48.1998 8.04973 48.0998 7.84973 47.9998 7.74973L46.0998 5.79973C45.8498 5.49973 45.9998 4.99973 46.3998 4.94973L48.9998 4.54973C49.1498 4.54973 49.2998 4.39973 49.3498 4.24973L50.4998 1.74973C50.7498 1.39973 51.2498 1.39973 51.4498 1.79973Z" fill="#143324"/>
<path d="M72 5.167L67.7917 4.63575L66 0.9375L64.2083 4.64575L60 5.15625L63.052 8L62.375 12.0625L66 10.1147L69.625 12.0625L68.8855 7.94525L72 5.167ZM63.7578 10.2635L64.1765 7.751L62.2887 5.99175L64.8917 5.676L66 3.38225V5.90625V9.05875L63.7578 10.2635Z" fill="#143324"/>
</svg>
