<svg width="132" height="59" viewBox="0 0 132 59" fill="none" xmlns="http://www.w3.org/2000/svg">
<path d="M42.4387 42.7849C42.4387 42.7849 38.0283 37.4204 37.4386 33.3365C36.5001 26.8739 36.9007 24.2168 37.7256 20.8587C37.7256 20.8587 34.5987 24.9575 36.3288 33.8965C36.785 36.2563 37.6041 37.6579 37.6041 37.6579C37.6041 37.6579 27.9561 33.0522 29.7089 24.8887C31.4601 16.7274 35.8401 9.81769 33.4725 7.27932C33.4725 7.27932 42.582 9.87275 44.4698 17.9167C46.3577 25.9607 39.8511 36.3681 42.4382 42.7812L42.4387 42.7849Z" fill="#32BB78"/>
<path d="M32.7339 43.0395C32.7339 43.0395 35.8795 40.8198 38.6416 41.3983C36.7751 40.4162 34.3322 40.0257 32.0348 39.6863C23.4325 38.4203 18.565 43.7622 11.7349 40.3664C11.7349 40.3664 18.1543 49.4357 23.0798 50.566C32.1012 52.6391 38.134 44.1929 41.9124 43.5003C41.9124 43.5003 36.9651 41.3954 32.7376 43.0389L32.7339 43.0395Z" fill="#2AAA0F"/>
<mask id="mask0_37_247" style="mask-type:luminance" maskUnits="userSpaceOnUse" x="6" y="16" width="30" height="26">
<path d="M6.66943 25.257L12.9961 16.7133L35.2424 33.187L28.9157 41.7306L6.66943 25.257Z" fill="white"/>
</mask>
<g mask="url(#mask0_37_247)">
<path d="M31.6487 37.5402C31.6487 37.5402 22.7298 38.2167 17.4318 32.6866C12.0967 27.119 11.2169 19.2714 11.2169 19.2714C11.2169 19.2714 22.5749 20.9444 24.8926 27.5998C26.3594 31.8115 29.0951 35.6942 31.6487 37.5402Z" fill="#59BF1D"/>
</g>
<path d="M38.7423 52.2342V40.0137H47.5091V42.0061H41.304V45.1372H46.807V47.1107H41.304V50.2607H47.5091V52.2342H38.7423ZM53.508 52.4239C51.9014 52.4239 50.668 52.0254 49.8077 51.2284C48.9601 50.4314 48.5364 49.2676 48.5364 47.7369C48.5364 46.1555 48.9918 44.979 49.9026 44.2074C50.8261 43.4357 52.0532 43.0498 53.5839 43.0498C54.2165 43.0498 54.7605 43.0941 55.2159 43.1827C55.6713 43.2712 56.1141 43.4167 56.5442 43.6191V45.4598C56.2279 45.308 55.8611 45.1878 55.4436 45.0992C55.0261 45.0107 54.577 44.9664 54.0963 44.9664C53.1348 44.9664 52.4011 45.1688 51.8951 45.5736C51.3891 45.9658 51.1361 46.6869 51.1361 47.7369C51.1361 48.6983 51.3638 49.4004 51.8192 49.8432C52.2873 50.286 53.04 50.5073 54.0773 50.5073C54.5201 50.5073 54.9502 50.4631 55.3677 50.3745C55.7978 50.286 56.1963 50.1531 56.5632 49.976V51.8736C55.7156 52.2405 54.6972 52.4239 53.508 52.4239ZM58.1814 52.2342V39.4444H60.7432V43.9986C61.1101 43.7203 61.5592 43.4926 62.0905 43.3155C62.6218 43.1384 63.1974 43.0498 63.8173 43.0498C65.0064 43.0498 65.873 43.3281 66.417 43.8848C66.961 44.4414 67.233 45.3016 67.233 46.4655V52.2342H64.6712V46.5983C64.6712 45.9911 64.5447 45.561 64.2917 45.308C64.0513 45.0549 63.5959 44.9284 62.9254 44.9284C62.5333 44.9284 62.1348 45.017 61.7299 45.1941C61.3378 45.3712 61.0089 45.5926 60.7432 45.8583V52.2342H58.1814ZM73.5195 52.4239C71.8369 52.4239 70.6035 52.0191 69.8192 51.2095C69.0348 50.3872 68.6427 49.2296 68.6427 47.7369C68.6427 46.2441 69.0348 45.0929 69.8192 44.2833C70.6161 43.461 71.8496 43.0498 73.5195 43.0498C75.202 43.0498 76.4354 43.461 77.2198 44.2833C78.0167 45.0929 78.4152 46.2441 78.4152 47.7369C78.4152 49.2296 78.0231 50.3872 77.2387 51.2095C76.4544 52.0191 75.2146 52.4239 73.5195 52.4239ZM73.5195 50.2417C74.3417 50.2417 74.93 50.0583 75.2842 49.6914C75.6384 49.3119 75.8155 48.6604 75.8155 47.7369C75.8155 46.8134 75.6384 46.1682 75.2842 45.8013C74.93 45.4218 74.3417 45.232 73.5195 45.232C72.7098 45.232 72.1279 45.4218 71.7737 45.8013C71.4195 46.1682 71.2424 46.8134 71.2424 47.7369C71.2424 48.6604 71.4195 49.3119 71.7737 49.6914C72.1279 50.0583 72.7098 50.2417 73.5195 50.2417ZM80.1965 52.2342V40.0137H88.7925V42.0061H82.7582V45.1372H88.0904V47.1107H82.7582V52.2342H80.1965ZM92.3636 52.4239C91.7943 52.4239 91.263 52.3227 90.7696 52.1203C90.2889 51.9052 89.8967 51.5953 89.5931 51.1905C89.3021 50.773 89.1566 50.2543 89.1566 49.6345C89.1566 48.7489 89.4666 48.0405 90.0865 47.5092C90.719 46.9778 91.6488 46.7122 92.8759 46.7122H95.5325V46.4655C95.5325 45.9089 95.3744 45.5167 95.0581 45.289C94.7545 45.0613 94.1346 44.9474 93.1985 44.9474C92.1738 44.9474 91.1871 45.1055 90.2383 45.4218V43.6191C90.6557 43.4546 91.1618 43.3218 91.7563 43.2206C92.3636 43.1067 93.0214 43.0498 93.7298 43.0498C95.0834 43.0498 96.1271 43.3281 96.8609 43.8848C97.6072 44.4287 97.9804 45.308 97.9804 46.5224V52.2342H95.7603L95.6274 51.4182C95.2732 51.7345 94.8368 51.9811 94.3181 52.1583C93.7994 52.3354 93.1479 52.4239 92.3636 52.4239ZM93.0657 50.7351C93.6349 50.7351 94.1283 50.6402 94.5458 50.4504C94.9633 50.2607 95.2922 50.0203 95.5325 49.7293V48.3061H92.9328C91.9334 48.3061 91.4337 48.7173 91.4337 49.5396C91.4337 50.3366 91.9777 50.7351 93.0657 50.7351ZM100.043 52.2342V43.2396H102.415L102.529 44.1694C102.934 43.9164 103.434 43.6887 104.028 43.4863C104.635 43.2712 105.23 43.1257 105.812 43.0498V44.9854C105.47 45.036 105.097 45.1119 104.692 45.2131C104.288 45.3143 103.902 45.4281 103.535 45.5546C103.168 45.6811 102.858 45.814 102.605 45.9531V52.2342H100.043ZM107.122 52.2342V43.2396H109.494L109.589 44.1125C110.019 43.7836 110.487 43.5242 110.993 43.3345C111.512 43.1447 112.069 43.0498 112.663 43.0498C113.296 43.0498 113.783 43.1447 114.124 43.3345C114.479 43.5242 114.751 43.7962 114.94 44.1504C115.358 43.8215 115.832 43.5558 116.363 43.3534C116.907 43.151 117.546 43.0498 118.28 43.0498C119.317 43.0498 120.083 43.3218 120.576 43.8658C121.07 44.3971 121.316 45.2131 121.316 46.3137V52.2342H118.792V46.5983C118.792 46.0037 118.666 45.5799 118.413 45.3269C118.16 45.0613 117.755 44.9284 117.198 44.9284C116.439 44.9284 115.807 45.2004 115.301 45.7444C115.364 45.9595 115.396 46.2188 115.396 46.5224V52.2342H113.005V46.5983C113.005 46.0417 112.91 45.6242 112.72 45.3459C112.53 45.0676 112.163 44.9284 111.62 44.9284C111.24 44.9284 110.879 45.0296 110.538 45.232C110.209 45.4218 109.912 45.6432 109.646 45.8962V52.2342H107.122ZM126.58 52.4239C125.91 52.4239 125.271 52.3733 124.664 52.2721C124.056 52.1836 123.569 52.0697 123.202 51.9305V49.8052C123.645 49.9823 124.145 50.1215 124.701 50.2227C125.258 50.3113 125.77 50.3555 126.239 50.3555C126.871 50.3555 127.314 50.3176 127.567 50.2417C127.832 50.1658 127.965 49.995 127.965 49.7293C127.965 49.4257 127.763 49.2043 127.358 49.0652C126.966 48.926 126.378 48.7299 125.593 48.4769C124.771 48.1986 124.139 47.8634 123.696 47.4712C123.253 47.079 123.032 46.4971 123.032 45.7254C123.032 44.8652 123.342 44.2074 123.961 43.7519C124.594 43.2839 125.606 43.0498 126.998 43.0498C127.554 43.0498 128.079 43.0941 128.573 43.1827C129.066 43.2586 129.483 43.3534 129.825 43.4673V45.5736C129.483 45.4092 129.091 45.289 128.648 45.2131C128.206 45.1245 127.795 45.0802 127.415 45.0802C126.871 45.0802 126.435 45.1182 126.106 45.1941C125.789 45.27 125.631 45.4345 125.631 45.6875C125.631 45.9658 125.802 46.1619 126.144 46.2757C126.498 46.3896 127.042 46.5604 127.776 46.7881C128.497 47.0031 129.06 47.2372 129.464 47.4902C129.869 47.7432 130.154 48.0468 130.318 48.401C130.483 48.7426 130.565 49.1727 130.565 49.6914C130.565 51.5131 129.237 52.4239 126.58 52.4239Z" fill="#143324"/>
</svg>
