<svg width="132" height="60" viewBox="0 0 132 60" fill="none" xmlns="http://www.w3.org/2000/svg">
<path d="M42.5275 43.2844C42.5275 43.2844 38.1171 37.9198 37.5274 33.8359C36.5888 27.3734 36.9895 24.7163 37.8143 21.3582C37.8143 21.3582 34.6874 25.457 36.4176 34.396C36.8738 36.7558 37.6928 38.1574 37.6928 38.1574C37.6928 38.1574 28.0448 33.5516 29.7976 25.3882C31.5488 17.2269 35.9288 10.3172 33.5612 7.77879C33.5612 7.77879 42.6707 10.3722 44.5586 18.4162C46.4464 26.4602 39.9398 36.8675 42.5269 43.2807L42.5275 43.2844Z" fill="#32BB78"/>
<path d="M32.8221 43.5393C32.8221 43.5393 35.9677 41.3197 38.7298 41.8982C36.8633 40.9161 34.4204 40.5256 32.123 40.1862C23.5207 38.9202 18.6532 44.2621 11.8231 40.8663C11.8231 40.8663 18.2425 49.9355 23.168 51.0659C32.1894 53.139 38.2223 44.6928 42.0006 44.0002C42.0006 44.0002 37.0534 41.8953 32.8259 43.5388L32.8221 43.5393Z" fill="#2AAA0F"/>
<mask id="mask0_248_540" style="mask-type:luminance" maskUnits="userSpaceOnUse" x="6" y="17" width="30" height="26">
<path d="M6.75781 25.7568L13.0845 17.2132L35.3307 33.6868L29.0041 42.2305L6.75781 25.7568Z" fill="white"/>
</mask>
<g mask="url(#mask0_248_540)">
<path d="M31.7369 38.0396C31.7369 38.0396 22.818 38.7161 17.5201 33.186C12.1849 27.6183 11.3051 19.7708 11.3051 19.7708C11.3051 19.7708 22.6631 21.4438 24.9808 28.0992C26.4477 32.3109 29.1833 36.1936 31.7369 38.0396Z" fill="#59BF1D"/>
</g>
<path d="M38.8306 52.7342V40.5137H47.5975V42.5062H41.3924V45.6372H46.8954V47.6107H41.3924V50.7607H47.5975V52.7342H38.8306ZM53.5964 52.924C51.9898 52.924 50.7564 52.5255 49.8961 51.7285C49.0485 50.9315 48.6247 49.7676 48.6247 48.2369C48.6247 46.6556 49.0802 45.4791 49.991 44.7074C50.9145 43.9357 52.1416 43.5499 53.6723 43.5499C54.3049 43.5499 54.8488 43.5941 55.3043 43.6827C55.7597 43.7712 56.2024 43.9167 56.6326 44.1191V45.9598C56.3163 45.808 55.9494 45.6878 55.532 45.5993C55.1145 45.5107 54.6654 45.4664 54.1847 45.4664C53.2232 45.4664 52.4895 45.6688 51.9835 46.0737C51.4774 46.4658 51.2244 47.1869 51.2244 48.2369C51.2244 49.1983 51.4521 49.9005 51.9076 50.3432C52.3756 50.786 53.1283 51.0074 54.1657 51.0074C54.6085 51.0074 55.0386 50.9631 55.4561 50.8746C55.8862 50.786 56.2847 50.6532 56.6515 50.4761V52.3736C55.8039 52.7405 54.7856 52.924 53.5964 52.924ZM58.2698 52.7342V39.9444H60.8316V44.4987C61.1984 44.2203 61.6475 43.9926 62.1789 43.8155C62.7102 43.6384 63.2858 43.5499 63.9057 43.5499C65.0948 43.5499 65.9614 43.8282 66.5054 44.3848C67.0493 44.9414 67.3213 45.8017 67.3213 46.9655V52.7342H64.7596V47.0983C64.7596 46.4911 64.6331 46.061 64.3801 45.808C64.1397 45.555 63.6843 45.4285 63.0138 45.4285C62.6216 45.4285 62.2231 45.517 61.8183 45.6941C61.4262 45.8712 61.0972 46.0926 60.8316 46.3583V52.7342H58.2698ZM73.6078 52.924C71.9253 52.924 70.6919 52.5191 69.9075 51.7095C69.1232 50.8872 68.731 49.7297 68.731 48.2369C68.731 46.7441 69.1232 45.5929 69.9075 44.7833C70.7045 43.961 71.938 43.5499 73.6078 43.5499C75.2904 43.5499 76.5238 43.961 77.3081 44.7833C78.1051 45.5929 78.5036 46.7441 78.5036 48.2369C78.5036 49.7297 78.1115 50.8872 77.3271 51.7095C76.5428 52.5191 75.303 52.924 73.6078 52.924ZM73.6078 50.7417C74.4301 50.7417 75.0184 50.5583 75.3726 50.1914C75.7268 49.8119 75.9039 49.1604 75.9039 48.2369C75.9039 47.3134 75.7268 46.6682 75.3726 46.3014C75.0184 45.9218 74.4301 45.7321 73.6078 45.7321C72.7982 45.7321 72.2163 45.9218 71.8621 46.3014C71.5078 46.6682 71.3307 47.3134 71.3307 48.2369C71.3307 49.1604 71.5078 49.8119 71.8621 50.1914C72.2163 50.5583 72.7982 50.7417 73.6078 50.7417ZM80.2848 52.7342V40.5137H88.8809V42.5062H82.8466V45.6372H88.1788V47.6107H82.8466V52.7342H80.2848ZM92.4519 52.924C91.8827 52.924 91.3513 52.8227 90.858 52.6203C90.3772 52.4053 89.9851 52.0953 89.6815 51.6905C89.3905 51.273 89.245 50.7544 89.245 50.1345C89.245 49.249 89.555 48.5405 90.1748 48.0092C90.8074 47.4779 91.7372 47.2122 92.9643 47.2122H95.6209V46.9655C95.6209 46.4089 95.4628 46.0167 95.1465 45.789C94.8429 45.5613 94.223 45.4474 93.2869 45.4474C92.2622 45.4474 91.2754 45.6056 90.3266 45.9218V44.1191C90.7441 43.9547 91.2501 43.8218 91.8447 43.7206C92.4519 43.6068 93.1098 43.5499 93.8182 43.5499C95.1718 43.5499 96.2155 43.8282 96.9492 44.3848C97.6956 44.9288 98.0688 45.808 98.0688 47.0224V52.7342H95.8486L95.7158 51.9182C95.3616 52.2345 94.9251 52.4812 94.4065 52.6583C93.8878 52.8354 93.2363 52.924 92.4519 52.924ZM93.1541 51.2351C93.7233 51.2351 94.2167 51.1402 94.6342 50.9505C95.0516 50.7607 95.3806 50.5203 95.6209 50.2294V48.8062H93.0212C92.0218 48.8062 91.5221 49.2173 91.5221 50.0396C91.5221 50.8366 92.0661 51.2351 93.1541 51.2351ZM100.132 52.7342V43.7396H102.504L102.618 44.6694C103.022 44.4164 103.522 44.1887 104.117 43.9863C104.724 43.7712 105.318 43.6258 105.9 43.5499V45.4854C105.559 45.536 105.186 45.6119 104.781 45.7131C104.376 45.8143 103.99 45.9282 103.623 46.0547C103.256 46.1812 102.946 46.314 102.693 46.4532V52.7342H100.132ZM107.211 52.7342V43.7396H109.583L109.677 44.6125C110.108 44.2836 110.576 44.0243 111.082 43.8345C111.6 43.6447 112.157 43.5499 112.752 43.5499C113.384 43.5499 113.871 43.6447 114.213 43.8345C114.567 44.0243 114.839 44.2962 115.029 44.6505C115.446 44.3215 115.921 44.0559 116.452 43.8535C116.996 43.6511 117.635 43.5499 118.368 43.5499C119.406 43.5499 120.171 43.8218 120.665 44.3658C121.158 44.8971 121.405 45.7131 121.405 46.8137V52.7342H118.881V47.0983C118.881 46.5038 118.754 46.08 118.501 45.827C118.248 45.5613 117.843 45.4285 117.287 45.4285C116.528 45.4285 115.895 45.7005 115.389 46.2444C115.452 46.4595 115.484 46.7188 115.484 47.0224V52.7342H113.093V47.0983C113.093 46.5417 112.998 46.1243 112.808 45.8459C112.619 45.5676 112.252 45.4285 111.708 45.4285C111.328 45.4285 110.968 45.5297 110.626 45.7321C110.297 45.9218 110 46.1432 109.734 46.3962V52.7342H107.211ZM126.668 52.924C125.998 52.924 125.359 52.8733 124.752 52.7721C124.145 52.6836 123.658 52.5697 123.291 52.4306V50.3053C123.734 50.4824 124.233 50.6215 124.79 50.7227C125.346 50.8113 125.859 50.8556 126.327 50.8556C126.959 50.8556 127.402 50.8176 127.655 50.7417C127.921 50.6658 128.054 50.495 128.054 50.2294C128.054 49.9258 127.851 49.7044 127.446 49.5652C127.054 49.4261 126.466 49.23 125.682 48.977C124.859 48.6987 124.227 48.3634 123.784 47.9712C123.341 47.5791 123.12 46.9971 123.12 46.2255C123.12 45.3652 123.43 44.7074 124.05 44.252C124.682 43.7839 125.694 43.5499 127.086 43.5499C127.643 43.5499 128.168 43.5941 128.661 43.6827C129.154 43.7586 129.572 43.8535 129.913 43.9673V46.0737C129.572 45.9092 129.18 45.789 128.737 45.7131C128.294 45.6246 127.883 45.5803 127.503 45.5803C126.959 45.5803 126.523 45.6182 126.194 45.6941C125.878 45.77 125.72 45.9345 125.72 46.1875C125.72 46.4658 125.89 46.6619 126.232 46.7758C126.586 46.8896 127.13 47.0604 127.864 47.2881C128.585 47.5032 129.148 47.7372 129.553 47.9902C129.958 48.2432 130.242 48.5468 130.407 48.9011C130.571 49.2426 130.653 49.6727 130.653 50.1914C130.653 52.0131 129.325 52.924 126.668 52.924Z" fill="white"/>
</svg>
