<svg width="100" height="21" viewBox="0 0 100 21" fill="none" xmlns="http://www.w3.org/2000/svg">
<path d="M6.45001 5.79997L7.60001 8.29997C7.65001 8.44997 7.8 8.54997 7.95001 8.59997L10.55 8.99997C11 8.99997 11.15 9.49997 10.85 9.79997L8.95001 11.75C8.85001 11.85 8.80001 12.05 8.80001 12.2L9.25001 14.9C9.30001 15.3 8.90001 15.65 8.55001 15.45L6.20001 14.15C6.05 14.05 5.90001 14.05 5.75001 14.15L3.40001 15.45C3.05001 15.65 2.60001 15.35 2.70001 14.9L3.15001 12.2C3.20001 12.05 3.10001 11.85 3.00001 11.75L1.10001 9.79997C0.850005 9.49997 1.00001 8.99997 1.40001 8.94997L4.00001 8.54997C4.15001 8.54997 4.30001 8.39997 4.35001 8.24997L5.50001 5.74997C5.75001 5.39997 6.25001 5.39997 6.45001 5.79997Z" fill="#143324"/>
<path d="M21.45 5.79997L22.6 8.29997C22.65 8.44997 22.8 8.54997 22.95 8.59997L25.55 8.99997C26 8.99997 26.15 9.49997 25.85 9.79997L23.95 11.75C23.85 11.85 23.8 12.05 23.8 12.2L24.25 14.9C24.3 15.3 23.9 15.65 23.55 15.45L21.2 14.15C21.05 14.05 20.9 14.05 20.75 14.15L18.4 15.45C18.05 15.65 17.6 15.35 17.7 14.9L18.15 12.2C18.2 12.05 18.1 11.85 18 11.75L16.1 9.79997C15.85 9.49997 16 8.99997 16.4 8.94997L19 8.54997C19.15 8.54997 19.3 8.39997 19.35 8.24997L20.5 5.74997C20.75 5.39997 21.25 5.39997 21.45 5.79997Z" fill="#143324"/>
<path d="M36.45 5.79997L37.6 8.29997C37.65 8.44997 37.8 8.54997 37.95 8.59997L40.55 8.99997C41 8.99997 41.15 9.49997 40.85 9.79997L38.95 11.75C38.85 11.85 38.8 12.05 38.8 12.2L39.25 14.9C39.3 15.3 38.9 15.65 38.55 15.45L36.2 14.15C36.05 14.05 35.9 14.05 35.75 14.15L33.4 15.45C33.05 15.65 32.6 15.35 32.7 14.9L33.15 12.2C33.2 12.05 33.1 11.85 33 11.75L31.1 9.79997C30.85 9.49997 31 8.99997 31.4 8.94997L34 8.54997C34.15 8.54997 34.3 8.39997 34.35 8.24997L35.5 5.74997C35.75 5.39997 36.25 5.39997 36.45 5.79997Z" fill="#143324"/>
<path d="M51.45 5.79997L52.6 8.29997C52.65 8.44997 52.8 8.54997 52.95 8.59997L55.55 8.99997C56 8.99997 56.15 9.49997 55.85 9.79997L53.95 11.75C53.85 11.85 53.8 12.05 53.8 12.2L54.25 14.9C54.3 15.3 53.9 15.65 53.55 15.45L51.2 14.15C51.05 14.05 50.9 14.05 50.75 14.15L48.4 15.45C48.05 15.65 47.6 15.35 47.7 14.9L48.15 12.2C48.2 12.05 48.1 11.85 48 11.75L46.1 9.79997C45.85 9.49997 46 8.99997 46.4 8.94997L49 8.54997C49.15 8.54997 49.3 8.39997 49.35 8.24997L50.5 5.74997C50.75 5.39997 51.25 5.39997 51.45 5.79997Z" fill="#143324"/>
<path d="M72 9.167L67.7917 8.63575L66 4.9375L64.2083 8.64575L60 9.15625L63.052 12L62.375 16.0625L66 14.1147L69.625 16.0625L68.8855 11.9453L72 9.167ZM63.7578 14.2635L64.1765 11.751L62.2887 9.99175L64.8917 9.676L66 7.38225V9.90625V13.0588L63.7578 14.2635Z" fill="#143324"/>
<path d="M82.48 14.666C82.752 14.666 82.994 14.628 83.206 14.552C83.418 14.476 83.598 14.37 83.746 14.234C83.894 14.094 84.006 13.928 84.082 13.736C84.158 13.544 84.196 13.334 84.196 13.106C84.196 12.826 84.15 12.586 84.058 12.386C83.966 12.182 83.842 12.016 83.686 11.888C83.53 11.756 83.348 11.66 83.14 11.6C82.932 11.536 82.712 11.504 82.48 11.504C82.244 11.504 82.022 11.536 81.814 11.6C81.606 11.66 81.424 11.756 81.268 11.888C81.112 12.016 80.988 12.182 80.896 12.386C80.808 12.586 80.764 12.826 80.764 13.106C80.764 13.334 80.802 13.544 80.878 13.736C80.954 13.928 81.066 14.094 81.214 14.234C81.362 14.37 81.542 14.476 81.754 14.552C81.966 14.628 82.208 14.666 82.48 14.666ZM82.48 7.688C82.232 7.688 82.014 7.726 81.826 7.802C81.642 7.874 81.488 7.974 81.364 8.102C81.24 8.23 81.146 8.378 81.082 8.546C81.022 8.714 80.992 8.894 80.992 9.086C80.992 9.274 81.018 9.458 81.07 9.638C81.126 9.814 81.212 9.972 81.328 10.112C81.448 10.248 81.602 10.358 81.79 10.442C81.978 10.526 82.208 10.568 82.48 10.568C82.748 10.568 82.976 10.526 83.164 10.442C83.356 10.358 83.51 10.248 83.626 10.112C83.746 9.972 83.832 9.814 83.884 9.638C83.94 9.458 83.968 9.274 83.968 9.086C83.968 8.894 83.936 8.714 83.872 8.546C83.812 8.378 83.72 8.23 83.596 8.102C83.472 7.974 83.316 7.874 83.128 7.802C82.944 7.726 82.728 7.688 82.48 7.688ZM83.77 11.006C84.306 11.166 84.712 11.424 84.988 11.78C85.268 12.136 85.408 12.586 85.408 13.13C85.408 13.506 85.336 13.846 85.192 14.15C85.052 14.454 84.852 14.714 84.592 14.93C84.336 15.142 84.028 15.306 83.668 15.422C83.308 15.538 82.912 15.596 82.48 15.596C82.048 15.596 81.652 15.538 81.292 15.422C80.932 15.306 80.622 15.142 80.362 14.93C80.106 14.714 79.906 14.454 79.762 14.15C79.622 13.846 79.552 13.506 79.552 13.13C79.552 12.586 79.69 12.136 79.966 11.78C80.246 11.424 80.654 11.166 81.19 11.006C80.746 10.838 80.412 10.588 80.188 10.256C79.964 9.92 79.852 9.522 79.852 9.062C79.852 8.742 79.914 8.444 80.038 8.168C80.166 7.888 80.344 7.646 80.572 7.442C80.804 7.238 81.082 7.078 81.406 6.962C81.73 6.846 82.088 6.788 82.48 6.788C82.872 6.788 83.23 6.846 83.554 6.962C83.878 7.078 84.154 7.238 84.382 7.442C84.614 7.646 84.792 7.888 84.916 8.168C85.044 8.444 85.108 8.742 85.108 9.062C85.108 9.522 84.996 9.92 84.772 10.256C84.548 10.588 84.214 10.838 83.77 11.006ZM88.1989 10.1C88.6389 10.008 89.0369 9.962 89.3929 9.962C89.8409 9.962 90.2369 10.03 90.5809 10.166C90.9249 10.298 91.2129 10.482 91.4449 10.718C91.6809 10.95 91.8569 11.226 91.9729 11.546C92.0929 11.862 92.1529 12.206 92.1529 12.578C92.1529 13.034 92.0729 13.448 91.9129 13.82C91.7529 14.192 91.5329 14.51 91.2529 14.774C90.9729 15.038 90.6409 15.242 90.2569 15.386C89.8769 15.526 89.4669 15.596 89.0269 15.596C88.7669 15.596 88.5189 15.57 88.2829 15.518C88.0509 15.466 87.8329 15.398 87.6289 15.314C87.4249 15.226 87.2349 15.126 87.0589 15.014C86.8869 14.902 86.7329 14.784 86.5969 14.66L86.9569 14.156C87.0329 14.044 87.1349 13.988 87.2629 13.988C87.3469 13.988 87.4389 14.02 87.5389 14.084C87.6429 14.144 87.7649 14.212 87.9049 14.288C88.0449 14.364 88.2109 14.434 88.4029 14.498C88.5949 14.558 88.8229 14.588 89.0869 14.588C89.3789 14.588 89.6409 14.542 89.8729 14.45C90.1089 14.354 90.3069 14.22 90.4669 14.048C90.6309 13.876 90.7549 13.67 90.8389 13.43C90.9269 13.19 90.9709 12.924 90.9709 12.632C90.9709 12.372 90.9329 12.138 90.8569 11.93C90.7809 11.722 90.6669 11.544 90.5149 11.396C90.3629 11.248 90.1729 11.136 89.9449 11.06C89.7169 10.98 89.4509 10.94 89.1469 10.94C88.7229 10.94 88.2709 11.016 87.7909 11.168L87.0529 10.952L87.7549 6.884H91.8829V7.394C91.8829 7.562 91.8289 7.7 91.7209 7.808C91.6169 7.912 91.4409 7.964 91.1929 7.964H88.5709L88.1989 10.1Z" fill="#507362"/>
</svg>
