<svg width="132" height="55" viewBox="0 0 132 55" fill="none" xmlns="http://www.w3.org/2000/svg">
<path d="M42.2249 39.5791C42.2249 39.5791 37.8803 34.6758 37.3384 30.9136C36.4755 24.9601 36.9066 22.504 37.7697 19.3965C37.7697 19.3965 34.5979 23.2119 36.223 31.4421C36.6515 33.6148 37.4536 34.8995 37.4536 34.8995C37.4536 34.8995 27.8668 30.752 29.7128 23.2004C31.5572 15.6509 36.0137 9.22822 33.6774 6.91107C33.6774 6.91107 42.7495 9.20738 44.5426 16.61C46.3357 24.0127 39.7137 33.6854 42.2244 39.5757L42.2249 39.5791Z" fill="#18633E"/>
<path d="M32.7344 39.7449C32.7344 39.7449 35.9074 37.6602 38.6643 38.1654C36.8082 37.2777 34.3685 36.9429 32.0738 36.6537C23.4816 35.5753 18.5494 40.5636 11.7551 37.4982C11.7551 37.4982 18.0727 45.8109 22.9877 46.8031C31.9899 48.6229 38.124 40.7534 41.9125 40.0731C41.9125 40.0731 36.987 38.1806 32.7381 39.7444L32.7344 39.7449Z" fill="#DCFBD6"/>
<mask id="mask0_52_214" style="mask-type:luminance" maskUnits="userSpaceOnUse" x="6" y="15" width="30" height="24">
<path d="M6.66943 23.5778L13.1204 15.5847L35.2423 30.6156L28.7914 38.6087L6.66943 23.5778Z" fill="white"/>
</mask>
<g mask="url(#mask0_52_214)">
<path d="M31.585 34.6935C31.585 34.6935 22.6269 35.4197 17.3772 30.349C12.0907 25.2439 11.3025 17.9749 11.3025 17.9749C11.3025 17.9749 22.6798 19.401 24.9253 25.5483C26.3465 29.4385 29.0448 33.0096 31.585 34.6935Z" fill="#245706"/>
</g>
<path d="M38.742 49.9487V37.7282H47.5089V39.7207H41.3038V42.8517H46.8068V44.8252H41.3038V47.9752H47.5089V49.9487H38.742ZM53.5078 50.1385C51.9012 50.1385 50.6677 49.74 49.8075 48.943C48.9599 48.146 48.5361 46.9821 48.5361 45.4514C48.5361 43.8701 48.9915 42.6936 49.9024 41.9219C50.8259 41.1502 52.053 40.7644 53.5837 40.7644C54.2162 40.7644 54.7602 40.8086 55.2156 40.8972C55.671 40.9858 56.1138 41.1312 56.5439 41.3336V43.1743C56.2277 43.0225 55.8608 42.9023 55.4433 42.8138C55.0259 42.7252 54.5768 42.6809 54.096 42.6809C53.1346 42.6809 52.4009 42.8833 51.8948 43.2882C51.3888 43.6803 51.1358 44.4014 51.1358 45.4514C51.1358 46.4129 51.3635 47.115 51.8189 47.5577C52.287 48.0005 53.0397 48.2219 54.0771 48.2219C54.5198 48.2219 54.95 48.1776 55.3674 48.0891C55.7976 48.0005 56.196 47.8677 56.5629 47.6906V49.5882C55.7153 49.955 54.697 50.1385 53.5078 50.1385ZM58.1812 49.9487V37.1589H60.743V41.7132C61.1098 41.4348 61.5589 41.2071 62.0902 41.03C62.6216 40.8529 63.1972 40.7644 63.817 40.7644C65.0062 40.7644 65.8728 41.0427 66.4167 41.5993C66.9607 42.1559 67.2327 43.0162 67.2327 44.18V49.9487H64.671V44.3129C64.671 43.7056 64.5445 43.2755 64.2914 43.0225C64.0511 42.7695 63.5957 42.643 62.9252 42.643C62.533 42.643 62.1345 42.7315 61.7297 42.9086C61.3375 43.0858 61.0086 43.3071 60.743 43.5728V49.9487H58.1812ZM73.5192 50.1385C71.8367 50.1385 70.6033 49.7336 69.8189 48.924C69.0346 48.1017 68.6424 46.9442 68.6424 45.4514C68.6424 43.9586 69.0346 42.8074 69.8189 41.9978C70.6159 41.1755 71.8493 40.7644 73.5192 40.7644C75.2017 40.7644 76.4352 41.1755 77.2195 41.9978C78.0165 42.8074 78.415 43.9586 78.415 45.4514C78.415 46.9442 78.0228 48.1017 77.2385 48.924C76.4542 49.7336 75.2144 50.1385 73.5192 50.1385ZM73.5192 47.9562C74.3415 47.9562 74.9298 47.7728 75.284 47.4059C75.6382 47.0264 75.8153 46.3749 75.8153 45.4514C75.8153 44.5279 75.6382 43.8827 75.284 43.5159C74.9298 43.1364 74.3415 42.9466 73.5192 42.9466C72.7096 42.9466 72.1276 43.1364 71.7734 43.5159C71.4192 43.8827 71.2421 44.5279 71.2421 45.4514C71.2421 46.3749 71.4192 47.0264 71.7734 47.4059C72.1276 47.7728 72.7096 47.9562 73.5192 47.9562ZM80.1962 49.9487V37.7282H88.7923V39.7207H82.758V42.8517H88.0902V44.8252H82.758V49.9487H80.1962ZM92.3633 50.1385C91.794 50.1385 91.2627 50.0373 90.7693 49.8348C90.2886 49.6198 89.8965 49.3098 89.5928 48.905C89.3019 48.4876 89.1564 47.9689 89.1564 47.349C89.1564 46.4635 89.4663 45.755 90.0862 45.2237C90.7187 44.6924 91.6486 44.4267 92.8757 44.4267H95.5323V44.18C95.5323 43.6234 95.3742 43.2312 95.0579 43.0035C94.7543 42.7758 94.1344 42.662 93.1983 42.662C92.1736 42.662 91.1868 42.8201 90.238 43.1364V41.3336C90.6555 41.1692 91.1615 41.0364 91.7561 40.9351C92.3633 40.8213 93.0212 40.7644 93.7296 40.7644C95.0832 40.7644 96.1269 41.0427 96.8606 41.5993C97.607 42.1433 97.9802 43.0225 97.9802 44.237V49.9487H95.76L95.6272 49.1327C95.273 49.449 94.8365 49.6957 94.3178 49.8728C93.7992 50.0499 93.1477 50.1385 92.3633 50.1385ZM93.0654 48.4496C93.6347 48.4496 94.1281 48.3547 94.5455 48.165C94.963 47.9752 95.2919 47.7348 95.5323 47.4439V46.0207H92.9326C91.9332 46.0207 91.4335 46.4318 91.4335 47.2541C91.4335 48.0511 91.9775 48.4496 93.0654 48.4496ZM100.043 49.9487V40.9541H102.415L102.529 41.8839C102.934 41.6309 103.433 41.4032 104.028 41.2008C104.635 40.9858 105.23 40.8403 105.812 40.7644V42.6999C105.47 42.7505 105.097 42.8264 104.692 42.9276C104.287 43.0288 103.902 43.1427 103.535 43.2692C103.168 43.3957 102.858 43.5285 102.605 43.6677V49.9487H100.043ZM107.122 49.9487V40.9541H109.494L109.589 41.827C110.019 41.4981 110.487 41.2388 110.993 41.049C111.512 40.8592 112.068 40.7644 112.663 40.7644C113.295 40.7644 113.783 40.8592 114.124 41.049C114.478 41.2388 114.75 41.5108 114.94 41.865C115.358 41.5361 115.832 41.2704 116.363 41.068C116.907 40.8656 117.546 40.7644 118.28 40.7644C119.317 40.7644 120.083 41.0364 120.576 41.5803C121.069 42.1117 121.316 42.9276 121.316 44.0282V49.9487H118.792V44.3129C118.792 43.7183 118.666 43.2945 118.413 43.0415C118.16 42.7758 117.755 42.643 117.198 42.643C116.439 42.643 115.807 42.915 115.301 43.4589C115.364 43.674 115.395 43.9333 115.395 44.237V49.9487H113.004V44.3129C113.004 43.7562 112.91 43.3388 112.72 43.0605C112.53 42.7821 112.163 42.643 111.619 42.643C111.24 42.643 110.879 42.7442 110.538 42.9466C110.209 43.1364 109.911 43.3577 109.646 43.6108V49.9487H107.122ZM126.58 50.1385C125.909 50.1385 125.27 50.0879 124.663 49.9867C124.056 49.8981 123.569 49.7842 123.202 49.6451V47.5198C123.645 47.6969 124.145 47.8361 124.701 47.9373C125.258 48.0258 125.77 48.0701 126.238 48.0701C126.871 48.0701 127.314 48.0321 127.567 47.9562C127.832 47.8803 127.965 47.7095 127.965 47.4439C127.965 47.1403 127.763 46.9189 127.358 46.7797C126.966 46.6406 126.377 46.4445 125.593 46.1915C124.771 45.9132 124.138 45.5779 123.695 45.1858C123.253 44.7936 123.031 44.2117 123.031 43.44C123.031 42.5797 123.341 41.9219 123.961 41.4665C124.594 40.9984 125.606 40.7644 126.997 40.7644C127.554 40.7644 128.079 40.8086 128.572 40.8972C129.066 40.9731 129.483 41.068 129.825 41.1818V43.2882C129.483 43.1237 129.091 43.0035 128.648 42.9276C128.205 42.8391 127.794 42.7948 127.415 42.7948C126.871 42.7948 126.434 42.8327 126.105 42.9086C125.789 42.9845 125.631 43.149 125.631 43.402C125.631 43.6803 125.802 43.8764 126.143 43.9903C126.498 44.1041 127.042 44.2749 127.775 44.5026C128.496 44.7177 129.059 44.9517 129.464 45.2047C129.869 45.4577 130.154 45.7614 130.318 46.1156C130.483 46.4571 130.565 46.8873 130.565 47.4059C130.565 49.2276 129.236 50.1385 126.58 50.1385Z" fill="white"/>
</svg>
