<svg width="132" height="55" viewBox="0 0 132 55" fill="none" xmlns="http://www.w3.org/2000/svg">
<path d="M42.2252 39.5792C42.2252 39.5792 37.8805 34.6758 37.3386 30.9136C36.4757 24.9601 36.9069 22.504 37.77 19.3965C37.77 19.3965 34.5981 23.2119 36.2232 31.4421C36.6517 33.6148 37.4538 34.8995 37.4538 34.8995C37.4538 34.8995 27.8671 30.752 29.7131 23.2004C31.5574 15.6509 36.0139 9.22823 33.6777 6.91107C33.6777 6.91107 42.7497 9.20738 44.5428 16.61C46.3359 24.0127 39.714 33.6854 42.2246 39.5757L42.2252 39.5792Z" fill="#A2EAC7"/>
<path d="M32.7341 39.7449C32.7341 39.7449 35.9072 37.6602 38.6641 38.1654C36.808 37.2777 34.3683 36.9429 32.0736 36.6537C23.4813 35.5753 18.5492 40.5637 11.7548 37.4982C11.7548 37.4982 18.0724 45.811 22.9875 46.8031C31.9897 48.6229 38.1238 40.7534 41.9122 40.0731C41.9122 40.0731 36.9868 38.1806 32.7379 39.7444L32.7341 39.7449Z" fill="#DCFBD6"/>
<mask id="mask0_56_389" style="mask-type:luminance" maskUnits="userSpaceOnUse" x="6" y="15" width="30" height="24">
<path d="M6.66992 23.5779L13.1208 15.5847L35.2428 30.6156L28.7919 38.6087L6.66992 23.5779Z" fill="white"/>
</mask>
<g mask="url(#mask0_56_389)">
<path d="M31.5848 34.6935C31.5848 34.6935 22.6267 35.4197 17.377 30.349C12.0904 25.2439 11.3022 17.9749 11.3022 17.9749C11.3022 17.9749 22.6795 19.401 24.925 25.5483C26.3462 29.4385 29.0445 33.0096 31.5848 34.6935Z" fill="#D4FFBA"/>
</g>
<path d="M38.7423 49.9487V37.7282H47.5091V39.7207H41.304V42.8517H46.807V44.8252H41.304V47.9752H47.5091V49.9487H38.7423ZM53.508 50.1385C51.9014 50.1385 50.668 49.74 49.8077 48.943C48.9601 48.146 48.5364 46.9821 48.5364 45.4514C48.5364 43.8701 48.9918 42.6936 49.9026 41.9219C50.8261 41.1502 52.0532 40.7644 53.5839 40.7644C54.2165 40.7644 54.7605 40.8086 55.2159 40.8972C55.6713 40.9857 56.1141 41.1312 56.5442 41.3336V43.1743C56.2279 43.0225 55.8611 42.9023 55.4436 42.8138C55.0261 42.7252 54.577 42.6809 54.0963 42.6809C53.1348 42.6809 52.4011 42.8833 51.8951 43.2882C51.3891 43.6803 51.1361 44.4014 51.1361 45.4514C51.1361 46.4129 51.3638 47.115 51.8192 47.5577C52.2873 48.0005 53.04 48.2219 54.0773 48.2219C54.5201 48.2219 54.9502 48.1776 55.3677 48.0891C55.7978 48.0005 56.1963 47.8677 56.5632 47.6906V49.5882C55.7156 49.955 54.6972 50.1385 53.508 50.1385ZM58.1814 49.9487V37.1589H60.7432V41.7132C61.1101 41.4348 61.5592 41.2071 62.0905 41.03C62.6218 40.8529 63.1974 40.7644 63.8173 40.7644C65.0064 40.7644 65.873 41.0427 66.417 41.5993C66.961 42.1559 67.233 43.0162 67.233 44.18V49.9487H64.6712V44.3129C64.6712 43.7056 64.5447 43.2755 64.2917 43.0225C64.0513 42.7695 63.5959 42.643 62.9254 42.643C62.5333 42.643 62.1348 42.7315 61.7299 42.9086C61.3378 43.0857 61.0089 43.3071 60.7432 43.5728V49.9487H58.1814ZM73.5195 50.1385C71.8369 50.1385 70.6035 49.7336 69.8192 48.924C69.0348 48.1017 68.6427 46.9442 68.6427 45.4514C68.6427 43.9586 69.0348 42.8074 69.8192 41.9978C70.6161 41.1755 71.8496 40.7644 73.5195 40.7644C75.202 40.7644 76.4354 41.1755 77.2198 41.9978C78.0167 42.8074 78.4152 43.9586 78.4152 45.4514C78.4152 46.9442 78.0231 48.1017 77.2387 48.924C76.4544 49.7336 75.2146 50.1385 73.5195 50.1385ZM73.5195 47.9562C74.3417 47.9562 74.93 47.7728 75.2842 47.4059C75.6384 47.0264 75.8155 46.3749 75.8155 45.4514C75.8155 44.5279 75.6384 43.8827 75.2842 43.5159C74.93 43.1364 74.3417 42.9466 73.5195 42.9466C72.7098 42.9466 72.1279 43.1364 71.7737 43.5159C71.4195 43.8827 71.2424 44.5279 71.2424 45.4514C71.2424 46.3749 71.4195 47.0264 71.7737 47.4059C72.1279 47.7728 72.7098 47.9562 73.5195 47.9562ZM80.1965 49.9487V37.7282H88.7925V39.7207H82.7582V42.8517H88.0904V44.8252H82.7582V49.9487H80.1965ZM92.3636 50.1385C91.7943 50.1385 91.263 50.0373 90.7696 49.8348C90.2889 49.6198 89.8967 49.3098 89.5931 48.905C89.3021 48.4876 89.1566 47.9689 89.1566 47.349C89.1566 46.4635 89.4666 45.755 90.0865 45.2237C90.719 44.6924 91.6488 44.4267 92.8759 44.4267H95.5325V44.18C95.5325 43.6234 95.3744 43.2312 95.0581 43.0035C94.7545 42.7758 94.1346 42.662 93.1985 42.662C92.1738 42.662 91.1871 42.8201 90.2383 43.1364V41.3336C90.6557 41.1692 91.1618 41.0364 91.7563 40.9351C92.3636 40.8213 93.0214 40.7644 93.7298 40.7644C95.0834 40.7644 96.1271 41.0427 96.8609 41.5993C97.6072 42.1433 97.9804 43.0225 97.9804 44.237V49.9487H95.7603L95.6274 49.1327C95.2732 49.449 94.8368 49.6957 94.3181 49.8728C93.7994 50.0499 93.1479 50.1385 92.3636 50.1385ZM93.0657 48.4496C93.6349 48.4496 94.1283 48.3547 94.5458 48.165C94.9633 47.9752 95.2922 47.7348 95.5325 47.4439V46.0207H92.9328C91.9334 46.0207 91.4337 46.4318 91.4337 47.2541C91.4337 48.0511 91.9777 48.4496 93.0657 48.4496ZM100.043 49.9487V40.9541H102.415L102.529 41.8839C102.934 41.6309 103.434 41.4032 104.028 41.2008C104.635 40.9858 105.23 40.8403 105.812 40.7644V42.6999C105.47 42.7505 105.097 42.8264 104.692 42.9276C104.288 43.0288 103.902 43.1427 103.535 43.2692C103.168 43.3957 102.858 43.5285 102.605 43.6677V49.9487H100.043ZM107.122 49.9487V40.9541H109.494L109.589 41.827C110.019 41.4981 110.487 41.2388 110.993 41.049C111.512 40.8592 112.069 40.7644 112.663 40.7644C113.296 40.7644 113.783 40.8592 114.124 41.049C114.479 41.2388 114.751 41.5107 114.94 41.865C115.358 41.5361 115.832 41.2704 116.363 41.068C116.907 40.8656 117.546 40.7644 118.28 40.7644C119.317 40.7644 120.083 41.0364 120.576 41.5803C121.07 42.1117 121.316 42.9276 121.316 44.0282V49.9487H118.792V44.3129C118.792 43.7183 118.666 43.2945 118.413 43.0415C118.16 42.7758 117.755 42.643 117.198 42.643C116.439 42.643 115.807 42.915 115.301 43.4589C115.364 43.674 115.396 43.9333 115.396 44.237V49.9487H113.005V44.3129C113.005 43.7562 112.91 43.3388 112.72 43.0604C112.53 42.7821 112.163 42.643 111.62 42.643C111.24 42.643 110.879 42.7442 110.538 42.9466C110.209 43.1364 109.912 43.3577 109.646 43.6107V49.9487H107.122ZM126.58 50.1385C125.91 50.1385 125.271 50.0879 124.664 49.9867C124.056 49.8981 123.569 49.7842 123.202 49.6451V47.5198C123.645 47.6969 124.145 47.836 124.701 47.9373C125.258 48.0258 125.77 48.0701 126.239 48.0701C126.871 48.0701 127.314 48.0321 127.567 47.9562C127.832 47.8803 127.965 47.7095 127.965 47.4439C127.965 47.1403 127.763 46.9189 127.358 46.7797C126.966 46.6406 126.378 46.4445 125.593 46.1915C124.771 45.9132 124.139 45.5779 123.696 45.1857C123.253 44.7936 123.032 44.2117 123.032 43.44C123.032 42.5797 123.342 41.9219 123.961 41.4665C124.594 40.9984 125.606 40.7644 126.998 40.7644C127.554 40.7644 128.079 40.8086 128.573 40.8972C129.066 40.9731 129.483 41.068 129.825 41.1818V43.2882C129.483 43.1237 129.091 43.0035 128.648 42.9276C128.206 42.8391 127.795 42.7948 127.415 42.7948C126.871 42.7948 126.435 42.8327 126.106 42.9086C125.789 42.9845 125.631 43.149 125.631 43.402C125.631 43.6803 125.802 43.8764 126.144 43.9903C126.498 44.1041 127.042 44.2749 127.776 44.5026C128.497 44.7177 129.06 44.9517 129.464 45.2047C129.869 45.4577 130.154 45.7614 130.318 46.1156C130.483 46.4571 130.565 46.8873 130.565 47.4059C130.565 49.2276 129.237 50.1385 126.58 50.1385Z" fill="white"/>
</svg>
