<svg width="110" height="23" viewBox="0 0 110 23" fill="none" xmlns="http://www.w3.org/2000/svg">
<path d="M11.0455 0L13.5253 7.63223L21.5503 7.63223L15.058 12.3492L17.5378 19.9814L11.0455 15.2645L4.5531 19.9814L7.03296 12.3492L0.540604 7.63223L8.5656 7.63223L11.0455 0Z" fill="#E73C17"/>
<path d="M40.1363 0L42.6161 7.63223L50.6411 7.63223L44.1488 12.3492L46.6286 19.9814L40.1363 15.2645L33.6439 19.9814L36.1238 12.3492L29.6314 7.63223L37.6564 7.63223L40.1363 0Z" fill="#E73C17"/>
<path d="M69.2271 0L71.707 7.63223L79.732 7.63223L73.2396 12.3492L75.7195 19.9814L69.2271 15.2645L62.7347 19.9814L65.2146 12.3492L58.7222 7.63223L66.7472 7.63223L69.2271 0Z" fill="#E73C17"/>
<path d="M98.3184 0L100.798 7.63223L108.823 7.63223L102.331 12.3492L104.811 19.9814L98.3184 15.2645L91.8261 19.9814L94.3059 12.3492L87.8136 7.63223L95.8386 7.63223L98.3184 0Z" fill="#E73C17"/>
</svg>
